# xmcd CD database file
#
# Track frame offsets:
#	150
#	11316
#	28929
#	44769
#	62593
#	75656
#	87672
#	103420
#	116857
#	130797
#
# Disc length: 1852 seconds
#
# Revision: 2
# Processed by: cddbd v1.5.1PL0 Copyright (c) Steve Scherf et al.
# Submitted via: Feurio! 1.67 - http://www.feurio.com
#
DISCID=89073a0a
DTITLE=Various Artist - Low Down Delta Blues
DYEAR=1900
DGENRE=blues
TTITLE0=John Lee Hooker  - Boom Boom
TTITLE1=Mississippi John Hurt  - Lonesome Blues
TTITLE2=Leadbelly  - Ain't Goin' Down To The Well No Mo' - Goin' Down Old 
TTITLE2=Hannah
TTITLE3=Memphis Slim - Blue And Lonesome
TTITLE4=Big Joe Williams - Sugar Mama
TTITLE5=Lightning Slim  - My Babe
TTITLE6=Mississippi John Hurt - Baby What's Wrong With You
TTITLE7=John Lee Hooker  - I'm In The Mood
TTITLE8=Leadbelly  - Fannin St.
TTITLE9=Big Joe Williams - Baby Please Don't Go
EXTD=
EXTT0=
EXTT1=
EXTT2=
EXTT3=
EXTT4=
EXTT5=
EXTT6=
EXTT7=
EXTT8=
EXTT9=
PLAYORDER=
